<svg width="12" height="12" viewBox="0 0 12 12" fill="none" xmlns="http://www.w3.org/2000/svg">
<path d="M2.26665 0.866647C2.14724 0.866647 2.0277 0.912133 1.9367 1.00337L1.00337 1.9367C0.820899 2.11917 0.820899 2.4146 1.00337 2.5966L4.40675 5.99998L1.00337 9.40337C0.820899 9.58583 0.820899 9.88126 1.00337 10.0633L1.9367 10.9966C2.11917 11.1791 2.4146 11.1791 2.5966 10.9966L5.99998 7.59321L9.40337 10.9966C9.58537 11.1791 9.88126 11.1791 10.0633 10.9966L10.9966 10.0633C11.1791 9.8808 11.1791 9.58537 10.9966 9.40337L7.59321 5.99998L10.9966 2.5966C11.1791 2.4146 11.1791 2.1187 10.9966 1.9367L10.0633 1.00337C9.8808 0.820899 9.58537 0.820899 9.40337 1.00337L5.99998 4.40675L2.5966 1.00337C2.50536 0.912133 2.38606 0.866647 2.26665 0.866647Z" fill="white"/>
</svg>
